<?xml version="1.0" standalone="no"?>
<!DOCTYPE svg PUBLIC "-//W3C//DTD SVG 20010904//EN"
 "http://www.w3.org/TR/2001/REC-SVG-20010904/DTD/svg10.dtd">
<svg version="1.0" xmlns="http://www.w3.org/2000/svg"
 width="512.000000pt" height="512.000000pt" viewBox="0 0 512.000000 512.000000"
 preserveAspectRatio="xMidYMid meet">

<g transform="translate(0.000000,512.000000) scale(0.100000,-0.100000)"
fill="#000000" stroke="none">
<path d="M1815 3947 c-603 -314 -1012 -822 -1126 -1398 -29 -146 -32 -422 -6
-565 32 -175 101 -350 185 -469 116 -166 202 -245 344 -316 130 -65 211 -84
373 -83 163 0 229 14 346 75 140 73 240 183 320 354 52 110 71 198 70 320 -2
410 -309 718 -741 742 -118 6 -191 -4 -281 -41 l-61 -25 7 47 c22 151 90 345
166 478 132 230 359 452 626 611 51 31 92 59 91 62 -8 18 -184 270 -188 270
-3 0 -59 -28 -125 -62z"/>
<path d="M3950 3949 c-675 -356 -1107 -948 -1149 -1576 -29 -438 96 -801 363
-1051 276 -258 769 -283 1028 -52 101 90 206 267 243 409 85 329 -72 679 -375
835 -201 104 -452 124 -632 51 -32 -12 -58 -21 -58 -18 0 3 9 49 20 103 85
417 341 756 773 1022 53 33 97 62 97 65 0 8 -184 273 -189 273 -3 0 -58 -28
-121 -61z"/>
</g>
</svg>
