
<svg
  xmlns="http://www.w3.org/2000/svg"
  viewBox="0 0 512 512"
  width="30"
  height="30"
  className="absolute top-0 right-0 hover:cursor-pointer"

>
  <g
    transform="translate(0.000000,512.000000) scale(0.100000,-0.100000)"
    fill="#000000"
    stroke="none"
  >
    <path
      d="M2320 4810 c-520 -65 -966 -274 -1329 -624 -361 -349 -584 -780 -668
-1291 -22 -136 -25 -504 -5 -635 81 -527 301 -963 664 -1316 260 -253 538
-421 882 -533 1132 -369 2363 212 2800 1322 111 281 163 586 153 897 -12 346
-87 643 -238 943 -328 650 -931 1094 -1654 1218 -137 23 -480 34 -605 19z
m485 -261 c369 -43 750 -208 1045 -454 320 -266 563 -661 661 -1071 70 -293
67 -651 -6 -944 -147 -585 -545 -1073 -1086 -1329 -278 -132 -548 -192 -859
-192 -326 0 -587 60 -875 201 -418 204 -726 512 -926 925 -140 290 -200 549
-201 870 -2 779 435 1476 1136 1810 358 171 711 230 1111 184z"
    />
    <path
      d="M2525 3066 c-16 -8 -220 -205 -452 -437 -437 -440 -446 -451 -427
-511 13 -42 44 -76 80 -88 75 -25 82 -20 371 273 148 150 312 317 365 372 l97
100 351 -357 c392 -399 389 -397 473 -360 64 29 95 107 66 165 -16 31 -808
825 -841 843 -33 17 -44 17 -83 0z"
    />
  </g>
</svg>
 
